<?xml version="1.0" standalone="no"?>
<!DOCTYPE svg PUBLIC "-//W3C//DTD SVG 20010904//EN"
 "http://www.w3.org/TR/2001/REC-SVG-20010904/DTD/svg10.dtd">
<svg version="1.0" xmlns="http://www.w3.org/2000/svg"
 width="233.000000pt" height="233.000000pt" viewBox="0 0 233.000000 233.000000"
 preserveAspectRatio="xMidYMid meet">
<metadata>
Created by potrace 1.15, written by Peter Selinger 2001-2017
</metadata>
<g transform="translate(0.000000,233.000000) scale(0.100000,-0.100000)"
fill="#000000" stroke="none">
<path d="M30 1170 l0 -1130 1140 0 1140 0 0 1130 0 1130 -1140 0 -1140 0 0
-1130z m2060 3 l0 -923 -922 0 -923 0 0 923 0 922 923 0 922 0 0 -922z"/>
<path d="M440 1175 l0 -715 721 0 722 0 -98 100 -99 100 -518 0 -518 0 0 517
0 516 -97 99 c-54 54 -101 98 -105 98 -4 0 -8 -322 -8 -715z"/>
<path d="M818 1175 l3 -345 339 0 c187 0 340 2 340 5 0 2 -35 41 -77 85 l-77
80 -178 0 -178 0 0 178 0 177 -83 83 c-45 45 -85 82 -87 82 -3 0 -4 -155 -2
-345z"/>
</g>
</svg>
