<?xml version="1.0" standalone="no"?>
<!DOCTYPE svg PUBLIC "-//W3C//DTD SVG 20010904//EN"
 "http://www.w3.org/TR/2001/REC-SVG-20010904/DTD/svg10.dtd">
<svg version="1.0" xmlns="http://www.w3.org/2000/svg"
 width="207.000000pt" height="207.000000pt" viewBox="0 0 207.000000 207.000000"
 preserveAspectRatio="xMidYMid meet">
<metadata>
Created by potrace 1.11, written by Peter Selinger 2001-2013
</metadata>
<g transform="translate(0.000000,207.000000) scale(0.100000,-0.100000)"
fill="#000000" stroke="none">
<path d="M622 2046 c10 -7 46 -39 81 -72 74 -69 237 -218 265 -242 18 -16 173
-157 232 -212 25 -23 188 -172 214 -195 43 -39 239 -217 274 -250 l44 -41 -99
-89 c-54 -50 -127 -117 -163 -150 -36 -33 -104 -95 -151 -138 -48 -42 -98 -87
-111 -100 -26 -23 -75 -68 -223 -202 -48 -44 -100 -91 -115 -105 -46 -42 -193
-176 -225 -203 l-30 -26 156 -1 155 0 35 31 c29 26 83 75 230 210 14 13 60 56
103 94 42 39 96 88 120 110 49 47 193 178 356 326 63 57 121 111 130 119 9 8
43 39 75 69 l59 54 -65 61 c-36 33 -112 104 -169 156 -57 52 -111 102 -120
110 -16 15 -191 176 -239 219 -14 13 -73 67 -130 120 -57 53 -113 104 -124
114 -24 20 -222 203 -249 230 -16 15 -39 17 -175 17 -132 -1 -155 -3 -141 -14z"/>
<path d="M124 1892 l-120 -3 0 -375 c1 -283 4 -377 13 -382 7 -4 80 -7 163 -7
l150 1 0 -93 c0 -67 -3 -93 -12 -94 -7 -1 -76 -2 -153 -3 -77 -2 -145 -3 -151
-4 -7 -1 -10 -117 -10 -375 l1 -372 285 -2 285 -3 55 51 c30 28 73 68 95 88
22 21 90 82 150 136 126 113 181 163 204 186 9 8 66 60 126 114 129 116 178
161 253 230 l54 51 -63 58 c-35 33 -111 103 -169 157 -133 123 -149 138 -250
229 -45 41 -100 91 -120 110 -21 19 -71 65 -111 101 -41 37 -103 94 -139 128
-36 34 -74 63 -85 66 -25 7 -293 11 -451 7z m426 -184 c25 -22 59 -52 75 -67
17 -15 75 -67 130 -116 55 -50 118 -106 139 -125 22 -19 67 -60 101 -90 33
-30 96 -87 140 -126 44 -40 100 -89 124 -111 l43 -39 -52 -45 c-29 -24 -67
-58 -84 -74 -17 -17 -67 -62 -111 -100 -44 -39 -87 -77 -95 -85 -8 -9 -73 -67
-145 -130 -71 -63 -132 -117 -135 -120 -3 -3 -43 -39 -90 -80 -47 -41 -87 -78
-90 -81 -3 -4 -77 -6 -165 -5 l-160 1 0 235 0 235 160 1 160 2 3 241 c2 224 1
241 -15 242 -10 1 -83 2 -163 3 l-145 1 -1 230 c0 127 1 233 3 237 2 5 77 8
166 7 l163 -1 44 -40z"/>
</g>
</svg>
